<svg id="Компонент_1_1" data-name="Компонент 1 – 1" xmlns="http://www.w3.org/2000/svg" width="74.751" height="70.947" viewBox="0 0 74.751 70.947">
  <path id="Прямоугольник_1" data-name="Прямоугольник 1" d="M0,0H10.189a4.529,4.529,0,0,1,4.529,4.529v61.89a4.529,4.529,0,0,1-4.529,4.529H0Z" fill="#fff"/>
  <path id="Контур_1" data-name="Контур 1" d="M2.264,0H4.151A2.264,2.264,0,0,1,6.415,2.264l-.24,41.143L3.189,54.72.177,43.408,0,2.264A2.264,2.264,0,0,1,2.264,0Z" transform="translate(21.511)" fill="#fff"/>
  <path id="Прямоугольник_2" data-name="Прямоугольник 2" d="M3.208,0h0A3.208,3.208,0,0,1,6.415,3.208V11.7H0V3.208A3.208,3.208,0,0,1,3.208,0Z" transform="translate(49.814)" fill="#fff"/>
  <rect id="Прямоугольник_3" data-name="Прямоугольник 3" width="2" height="5" transform="translate(52 11)" fill="#fff"/>
  <ellipse id="Эллипс_1" data-name="Эллипс 1" cx="8" cy="8.5" rx="8" ry="8.5" transform="translate(45 15)" fill="#fff"/>
  <path id="Контур_2" data-name="Контур 2" d="M766.456,388.714a6.091,6.091,0,0,1,.191-4.936c1.307-2.37,3.083-2.394,3.083-2.394l6.319-14.711s-5.4-2.189-5.5-2.279-11.14,25.53-11.14,25.53l-2.882,11.753,1.781.843,6.865-10.671Z" transform="translate(-723.122 -335.187)" fill="#fff"/>
  <rect id="Прямоугольник_4" data-name="Прямоугольник 4" width="6.038" height="27.926" transform="translate(51.768 27.951) rotate(-23)" fill="#fff"/>
  <path id="Прямоугольник_5" data-name="Прямоугольник 5" d="M0,0H6.038V9.434a3.019,3.019,0,0,1-3.019,3.019h0A3.019,3.019,0,0,1,0,9.434Z" transform="matrix(0.914, -0.407, 0.407, 0.914, 64.163, 56.94)" fill="#fff"/>
</svg>
