<svg xmlns="http://www.w3.org/2000/svg" width="106" height="25.663" viewBox="0 0 106 25.663">
  <g id="Сгруппировать_1" data-name="Сгруппировать 1" transform="translate(0 -0.833)">
    <path id="Контур_1" data-name="Контур 1" d="M36.7,17.076v1.65H31V10.185h1.928v6.891Z" fill="#247cc0"/>
    <path id="Контур_2" data-name="Контур 2" d="M37.944,10.185h1.928v8.542H37.944Z" fill="#247cc0"/>
    <path id="Контур_3" data-name="Контур 3" d="M47.568,18.726c-.555-.977-1.149-1.941-1.782-2.9a32.31,32.31,0,0,0-2.046-2.706v5.6h-1.9V10.185H43.41c.277.277.568.607.9,1s.66.818,1,1.267.686.911,1.016,1.4.66.937.951,1.386V10.185h1.914v8.542Z" fill="#247cc0"/>
    <path id="Контур_4" data-name="Контур 4" d="M56.2,18.726c-.172-.277-.383-.581-.607-.9s-.488-.647-.766-.977a11.638,11.638,0,0,0-.858-.937,7.977,7.977,0,0,0-.884-.792V18.74H51.159V10.185h1.927v3.208c.488-.515,1-1.069,1.505-1.624s.977-1.1,1.413-1.584h2.284c-.581.686-1.162,1.36-1.756,1.993s-1.215,1.281-1.861,1.927a13.834,13.834,0,0,1,1.98,2.033,27.071,27.071,0,0,1,1.835,2.587Z" fill="#247cc0"/>
    <path id="Контур_5" data-name="Контур 5" d="M59.6,18.726V10.185h5.769V11.8H61.523v1.677h3.419v1.584H61.523v2.06h4.132v1.611Z" fill="#247cc0"/>
    <path id="Контур_6" data-name="Контур 6" d="M74.553,14.449a5.146,5.146,0,0,1-.343,1.941,3.574,3.574,0,0,1-.977,1.373,4.316,4.316,0,0,1-1.545.819,7.04,7.04,0,0,1-2.046.277c-.343,0-.752-.013-1.215-.04a9.359,9.359,0,0,1-1.36-.185V10.3c.449-.079.911-.132,1.386-.172s.9-.04,1.241-.04a7.225,7.225,0,0,1,1.993.251,3.912,3.912,0,0,1,1.531.779,3.594,3.594,0,0,1,.99,1.36A5.05,5.05,0,0,1,74.553,14.449ZM69,17.156a2.339,2.339,0,0,0,.317.013h.422a2.815,2.815,0,0,0,2.139-.726,2.79,2.79,0,0,0,.7-2.007,2.852,2.852,0,0,0-.66-2.033,2.824,2.824,0,0,0-2.112-.686h-.409a3.514,3.514,0,0,0-.4.026Z" fill="#247cc0"/>
    <path id="Контур_7" data-name="Контур 7" d="M82.21,10.185v1.637H79.636v6.9H77.708v-6.9H75.134V10.185Z" fill="#247cc0"/>
    <path id="Контур_8" data-name="Контур 8" d="M83.451,18.726V10.185H89.22V11.8H85.379v1.677H88.8v1.584H85.379v2.06h4.132v1.611Z" fill="#247cc0"/>
    <path id="Контур_9" data-name="Контур 9" d="M94.818,18.9a4.168,4.168,0,0,1-3.182-1.162,4.64,4.64,0,0,1-1.1-3.287,4.966,4.966,0,0,1,.33-1.888,4.018,4.018,0,0,1,.911-1.4,3.755,3.755,0,0,1,1.386-.871A4.927,4.927,0,0,1,94.91,10a5.79,5.79,0,0,1,.99.079,7.593,7.593,0,0,1,.779.185,4.129,4.129,0,0,1,.554.211c.145.079.251.132.317.172L97,12.2a3.968,3.968,0,0,0-.924-.356,4.648,4.648,0,0,0-1.188-.145,2.87,2.87,0,0,0-.871.145,1.914,1.914,0,0,0-.753.475,2.364,2.364,0,0,0-.528.845,3.522,3.522,0,0,0-.2,1.254,4.257,4.257,0,0,0,.132,1.109,2.392,2.392,0,0,0,.423.884,2.059,2.059,0,0,0,.753.581,2.683,2.683,0,0,0,1.135.211,4.387,4.387,0,0,0,.752-.053,3.37,3.37,0,0,0,.594-.119,2.1,2.1,0,0,0,.462-.158q.2-.079.356-.158l.528,1.545a4.954,4.954,0,0,1-1.148.449A7.232,7.232,0,0,1,94.818,18.9Z" fill="#247cc0"/>
    <path id="Контур_10" data-name="Контур 10" d="M104.073,10.185H106v8.542h-1.927V15.1h-3.235v3.631H98.911V10.185h1.927v3.274h3.235Z" fill="#247cc0"/>
    <path id="Контур_11" data-name="Контур 11" d="M4.594,7.444a3.588,3.588,0,0,1,.773-1.817L4.33,4.548l-3.2,1.845A2.466,2.466,0,0,0,.223,7.444Z" fill="#262262"/>
    <path id="Контур_12" data-name="Контур 12" d="M11.451,19.452l-2.576-7.97a3.6,3.6,0,0,1-1.914-.16L4.448,16.18A1.8,1.8,0,0,1,5.033,17.5c0,.07-.007.139-.014.209l5.813,2.325A2.16,2.16,0,0,1,11.451,19.452Z" fill="#1c75bc"/>
    <path id="Контур_13" data-name="Контур 13" d="M3.244,15.72a1.747,1.747,0,0,1,.383.042L6.14,10.9A3.627,3.627,0,0,1,4.6,8.369H.007v3.425L2.68,15.811A1.843,1.843,0,0,1,3.244,15.72Z" fill="#2b3990"/>
    <path id="Контур_14" data-name="Контур 14" d="M12.509,19.159a2.428,2.428,0,0,1,.452.049l3.1-6.439a2.634,2.634,0,0,1-1.1-2.151c0-.09.007-.188.014-.278l-3.425-.989A3.638,3.638,0,0,1,9.76,11.2l2.576,7.97C12.391,19.166,12.453,19.159,12.509,19.159Z" fill="#1c75bc"/>
    <path id="Контур_15" data-name="Контур 15" d="M22.164,6.72,19.776,9.107a2.656,2.656,0,0,1,.48,1.517,2.606,2.606,0,0,1-.48,1.518L22.9,15.268V8.383A2.561,2.561,0,0,0,22.164,6.72Z" fill="#1c75bc"/>
    <path id="Контур_16" data-name="Контур 16" d="M3.279,19.292H3.244A1.79,1.79,0,0,1,1.9,16.319L0,13.465v5.485a2.527,2.527,0,0,0,1.149,1.984L4.3,22.751Z" fill="#1c75bc"/>
    <path id="Контур_17" data-name="Контур 17" d="M11.848,7.91a3.673,3.673,0,0,1-.042.557l3.425.988A2.648,2.648,0,0,1,16.915,8.07l-.425-4.713L12.878,1.269,10.5,5.084A3.63,3.63,0,0,1,11.848,7.91Z" fill="#2b3990"/>
    <path id="Контур_18" data-name="Контур 18" d="M6.042,4.986a3.613,3.613,0,0,1,2.172-.717A3.655,3.655,0,0,1,9.725,4.6l2.3-3.7a2.505,2.505,0,0,0-1.712.216L5.172,4.074Z" fill="#262262"/>
    <path id="Контур_19" data-name="Контур 19" d="M21.392,6.184,17.472,3.921l.362,4.065a2.666,2.666,0,0,1,1.288.466Z" fill="#2b3990"/>
    <path id="Контур_20" data-name="Контур 20" d="M5.019,17.718l5.813,2.325a2.011,2.011,0,0,1,.627-.585L9.175,12.393A22.558,22.558,0,0,0,4.58,16.326a1.789,1.789,0,0,1,.452,1.19C5.033,17.579,5.026,17.649,5.019,17.718Z" fill="#0ad"/>
    <path id="Контур_21" data-name="Контур 21" d="M18.642,13.061l.689,2.979a1.481,1.481,0,0,1,1.344,1.469,1.456,1.456,0,0,1-.16.668l2,2a2.412,2.412,0,0,0,.39-1.211V16.584l-3.78-3.78A3.9,3.9,0,0,1,18.642,13.061Z" fill="#0ad"/>
    <path id="Контур_22" data-name="Контур 22" d="M10.456,21.213a2.372,2.372,0,0,1,.021-.313L4.671,18.575a1.853,1.853,0,0,1-.5.459l1.281,4.392L8.11,24.958,10.769,22.3A2.062,2.062,0,0,1,10.456,21.213Z" fill="#0ad"/>
    <path id="Контур_23" data-name="Контур 23" d="M14.034,19.841l3.71-2.053a1.788,1.788,0,0,1-.028-.278,1.491,1.491,0,0,1,.71-1.267l-.689-2.979H17.6a2.652,2.652,0,0,1-.71-.1L13.8,19.6C13.88,19.681,13.957,19.758,14.034,19.841Z" fill="#0ad"/>
    <path id="Контур_24" data-name="Контур 24" d="M20.257,10.625a2.606,2.606,0,0,1-.48,1.517L22.9,15.268V8.843c-.5-.035-1-.049-1.511-.049-.445,0-.891.014-1.33.042l-.278.278A2.664,2.664,0,0,1,20.257,10.625Z" fill="#0ad"/>
    <path id="Контур_25" data-name="Контур 25" d="M12.509,23.267a2,2,0,0,1-1.086-.313L8.938,25.438l1.364.787a2.551,2.551,0,0,0,2.29,0L15.3,24.659l-1.712-1.712A1.91,1.91,0,0,1,12.509,23.267Z" fill="#77dfff"/>
    <path id="Контур_26" data-name="Контур 26" d="M3.279,19.292H3.244A1.778,1.778,0,0,1,2.45,19.1c-.4.627-.78,1.274-1.121,1.935l2.958,1.712Z" fill="#0ad"/>
    <path id="Контур_27" data-name="Контур 27" d="M19.2,18.985a1.466,1.466,0,0,1-1-.39l-3.71,2.053a2.158,2.158,0,0,1,.077.564A2,2,0,0,1,14.25,22.3l1.886,1.887,5.618-3.244c.042-.028.091-.056.132-.084L19.86,18.832A1.512,1.512,0,0,1,19.2,18.985Z" fill="#77dfff"/>
  </g>
</svg>
