<svg id="user" xmlns="http://www.w3.org/2000/svg" width="14.91" height="16" viewBox="0 0 14.91 16">
  <path id="Контур_33" data-name="Контур 33" d="M7.455,9.012C2.648,9.012,0,11.286,0,15.416A.584.584,0,0,0,.584,16H14.326a.584.584,0,0,0,.584-.584C14.91,11.287,12.262,9.012,7.455,9.012Zm-6.266,5.82c.23-3.088,2.335-4.652,6.266-4.652s6.036,1.564,6.266,4.652Z" fill="#030d15"/>
  <path id="Контур_34" data-name="Контур 34" d="M7.455,0A3.827,3.827,0,0,0,3.582,3.951a4.054,4.054,0,0,0,3.873,4.2,4.054,4.054,0,0,0,3.873-4.2A3.827,3.827,0,0,0,7.455,0Zm0,6.988A2.889,2.889,0,0,1,4.749,3.951,2.655,2.655,0,0,1,7.455,1.168a2.685,2.685,0,0,1,2.706,2.783A2.889,2.889,0,0,1,7.455,6.988Z" fill="#030d15"/>
</svg>
