<svg xmlns="http://www.w3.org/2000/svg" width="11.534" height="11" viewBox="0 0 11.534 11">
  <g id="star-empty" transform="translate(0 -0.001)">
    <path id="Контур_2" data-name="Контур 2" d="M6.045.185,7.52,3.639l3.741.336a.3.3,0,0,1,.172.525h0L8.6,6.97l.837,3.663a.3.3,0,0,1-.457.318L5.768,9.03,2.543,10.958a.3.3,0,0,1-.447-.325h0L2.933,6.97.1,4.5a.3.3,0,0,1,.182-.526l3.731-.335L5.491.184a.3.3,0,0,1,.554,0Zm.992,3.854L5.768,1.066,4.5,4.039h0a.3.3,0,0,1-.25.181l-3.22.289L3.451,6.625a.3.3,0,0,1,.108.3l-.72,3.152,2.77-1.656a.3.3,0,0,1,.314,0L8.7,10.081,7.977,6.93h0a.3.3,0,0,1,.095-.293l2.436-2.127L7.3,4.222a.3.3,0,0,1-.267-.183Z" transform="translate(0)"/>
  </g>
</svg>
