<svg xmlns="http://www.w3.org/2000/svg" width="317.521" height="201.74" viewBox="0 0 317.521 201.74">
  <g id="mail_1_" data-name="mail (1)" transform="translate(0 -76)">
    <g id="Сгруппировать_1" data-name="Сгруппировать 1" transform="translate(0 76)">
      <path id="Контур_2" data-name="Контур 2" d="M289.613,76H27.907C12.488,76,0,87.355,0,101.218V252.523c0,13.945,12.58,25.217,27.907,25.217H289.613c15.29,0,27.907-11.225,27.907-25.217V101.218C317.521,87.379,305.082,76,289.613,76Zm-3.908,16.812L178.494,189.18a30.054,30.054,0,0,1-39.484-.016L31.815,92.812ZM18.6,249.1V104.65L99,176.915Zm13.222,11.828,80.364-72.157,13.68,12.3a50.09,50.09,0,0,0,65.76.016l13.7-12.312,80.364,72.157ZM298.916,249.1l-80.4-72.186,80.4-72.265Z" transform="translate(0 -76)" fill="#fff"/>
    </g>
  </g>
</svg>
