<svg xmlns="http://www.w3.org/2000/svg" width="302.665" height="430.457" viewBox="0 0 302.665 430.457">
  <g id="placeholder" transform="translate(-76)">
    <g id="Сгруппировать_2" data-name="Сгруппировать 2" transform="translate(76)">
      <g id="Сгруппировать_1" data-name="Сгруппировать 1">
        <path id="Контур_1" data-name="Контур 1" d="M227.333,0C143.888,0,76,67.888,76,151.333A151.011,151.011,0,0,0,98.59,230.91L218.718,424.5a12.611,12.611,0,0,0,10.715,5.962h.1a12.608,12.608,0,0,0,10.719-6.131L357.32,228.865a151.152,151.152,0,0,0,21.346-77.533C378.665,67.888,310.777,0,227.333,0ZM335.675,215.916l-106.432,177.7-109.216-176a125.955,125.955,0,0,1-18.973-66.289c0-69.537,56.741-126.279,126.279-126.279S353.527,81.8,353.527,151.333A126,126,0,0,1,335.675,215.916Z" transform="translate(-76)" fill="#fff"/>
      </g>
    </g>
    <g id="Сгруппировать_4" data-name="Сгруппировать 4" transform="translate(151.666 75.666)">
      <g id="Сгруппировать_3" data-name="Сгруппировать 3">
        <path id="Контур_2" data-name="Контур 2" d="M241.666,90a75.666,75.666,0,1,0,75.666,75.666A75.752,75.752,0,0,0,241.666,90Zm0,126.279a50.612,50.612,0,1,1,50.528-50.612A50.651,50.651,0,0,1,241.666,216.279Z" transform="translate(-166 -90)" fill="#fff"/>
      </g>
    </g>
  </g>
</svg>
