<svg xmlns="http://www.w3.org/2000/svg" width="268.697" height="269.716" viewBox="0 0 268.697 269.716">
  <g id="telephone" transform="translate(-0.912)">
    <path id="Контур_1" data-name="Контур 1" d="M55.362,179.289a286.141,286.141,0,0,0,95.177,74.555c13.916,6.595,32.527,14.419,53.261,15.76,1.285.056,2.515.112,3.8.112,13.916,0,25.094-4.806,34.2-14.7a1.219,1.219,0,0,0,.224-.279,144,144,0,0,1,10.786-11.178c2.627-2.515,5.309-5.142,7.88-7.824,11.9-12.407,11.9-28.168-.112-40.184l-33.589-33.589c-5.7-5.924-12.519-9.054-19.673-9.054s-14.028,3.13-19.9,9l-20.008,20.008c-1.844-1.062-3.745-2.012-5.533-2.906a69.112,69.112,0,0,1-6.148-3.353C137.517,164.087,120.975,149,105.158,129.6c-7.992-10.116-13.357-18.611-17.1-27.273,5.253-4.75,10.172-9.725,14.922-14.587,1.677-1.733,3.409-3.465,5.142-5.2,6.036-6.036,9.277-13.022,9.277-20.12s-3.186-14.084-9.277-20.12L91.466,25.653c-1.956-1.956-3.8-3.856-5.7-5.812-3.689-3.8-7.545-7.713-11.345-11.234C68.663,2.962,61.9,0,54.747,0c-7.1,0-13.916,2.962-19.9,8.663l-20.9,20.9a42.947,42.947,0,0,0-12.8,27.5c-1.062,13.357,1.4,27.553,7.768,44.71C18.7,128.319,33.454,152.966,55.362,179.289ZM14.787,58.235a29.562,29.562,0,0,1,8.886-19l20.79-20.79c3.242-3.13,6.818-4.75,10.283-4.75,3.409,0,6.874,1.621,10.06,4.862,3.744,3.465,7.265,7.1,11.066,10.954,1.9,1.956,3.856,3.912,5.812,5.924L98.34,52.088c3.465,3.465,5.253,6.986,5.253,10.451S101.8,69.525,98.34,72.99c-1.733,1.733-3.465,3.521-5.2,5.253-5.2,5.253-10.06,10.228-15.425,14.978l-.279.279c-4.639,4.639-3.912,9.054-2.794,12.407.056.168.112.279.168.447,4.3,10.339,10.283,20.176,19.617,31.912,16.766,20.679,34.427,36.718,53.876,49.07a80,80,0,0,0,7.377,4.024,69.106,69.106,0,0,1,6.148,3.353c.224.112.391.224.615.335a11.683,11.683,0,0,0,5.421,1.4,11.854,11.854,0,0,0,8.327-3.8l20.9-20.9c3.242-3.242,6.762-4.974,10.228-4.974,4.247,0,7.713,2.627,9.892,4.974l33.7,33.645c6.707,6.707,6.651,13.972-.168,21.07-2.347,2.515-4.806,4.918-7.433,7.433a160.947,160.947,0,0,0-11.681,12.128c-6.427,6.93-14.084,10.172-23.976,10.172-.95,0-1.956-.056-2.906-.112-18.331-1.174-35.377-8.327-48.176-14.419a271.833,271.833,0,0,1-90.595-70.978c-20.846-25.094-34.874-48.455-44.152-73.493C16.073,81.82,13.893,69.469,14.787,58.235Z" fill="#fff"/>
  </g>
</svg>
